<svg xmlns="http://www.w3.org/2000/svg" viewBox="0 0 360 585" width="360" height="585"><rect width="360" height="585" fill="#F6F4F0"/><rect width="360" height="44" fill="#F6F4F0"/><text x="16" y="30" font-family="-apple-system,'Segoe UI',system-ui,sans-serif" font-size="21" font-weight="700" fill="#4A3728" letter-spacing="-0.5">stats hub</text><circle cx="132.5" cy="29" r="3.6" fill="#0A9D56"/><line x1="0" y1="44" x2="360" y2="44" stroke="rgba(74,55,40,0.14)"/><rect x="16" y="56" width="158" height="34" rx="10" fill="#0A6B3C"/><text x="95" y="78" font-family="Georgia,'Times New Roman',serif" font-size="13" font-weight="700" fill="#F6F4F0" text-anchor="middle">Players</text><rect x="186" y="56" width="158" height="34" rx="10" fill="#FFFFFF" stroke="rgba(74,55,40,0.14)"/><text x="265" y="78" font-family="Georgia,'Times New Roman',serif" font-size="13" font-weight="400" fill="rgba(43,33,24,0.75)" text-anchor="middle">Courses</text><rect x="16" y="100" width="82" height="28" rx="14" fill="#FFFFFF" stroke="rgba(74,55,40,0.14)"/><text x="57" y="118" font-family="Georgia,'Times New Roman',serif" font-size="12" font-weight="400" fill="rgba(43,33,24,0.75)" text-anchor="middle">Everyone</text><rect x="106" y="100" width="56" height="28" rx="14" fill="#0A6B3C"/><text x="134" y="118" font-family="Georgia,'Times New Roman',serif" font-size="12" font-weight="700" fill="#F6F4F0" text-anchor="middle">You</text><rect x="170" y="100" width="60" height="28" rx="14" fill="#FFFFFF" stroke="rgba(74,55,40,0.14)"/><text x="200" y="118" font-family="Georgia,'Times New Roman',serif" font-size="12" font-weight="400" fill="rgba(43,33,24,0.75)" text-anchor="middle">Dave</text><rect x="238" y="100" width="58" height="28" rx="14" fill="#FFFFFF" stroke="rgba(74,55,40,0.14)"/><text x="267" y="118" font-family="Georgia,'Times New Roman',serif" font-size="12" font-weight="400" fill="rgba(43,33,24,0.75)" text-anchor="middle">Jack</text><rect x="16" y="140" width="328" height="46" rx="12" fill="#FFFFFF" stroke="rgba(74,55,40,0.14)"/><text x="32" y="160" font-family="-apple-system,'Segoe UI',system-ui,sans-serif" font-size="10" font-weight="400" fill="rgba(43,33,24,0.55)" text-anchor="start" letter-spacing="1.6">COURSES</text><text x="32" y="177" font-family="Georgia,'Times New Roman',serif" font-size="13.5" font-weight="700" fill="#2B2118" text-anchor="start">All courses</text><text x="300" y="170" font-family="Georgia,'Times New Roman',serif" font-size="12" font-weight="400" fill="rgba(43,33,24,0.75)" text-anchor="end">4 rounds</text><rect x="16" y="198" width="328" height="200" rx="12" fill="#FFFFFF" stroke="rgba(74,55,40,0.14)"/><text x="32" y="226" font-family="Georgia,'Times New Roman',serif" font-size="16" font-weight="700" fill="#2B2118" text-anchor="start">Scoring</text><text x="32" y="245" font-family="Georgia,'Times New Roman',serif" font-size="11.5" font-weight="400" fill="rgba(43,33,24,0.75)" text-anchor="start">Every scored hole, against your own par.</text><text x="32" y="276" font-family="-apple-system,'Segoe UI',system-ui,sans-serif" font-size="11" font-weight="400" fill="rgba(43,33,24,0.55)" text-anchor="start" letter-spacing="1.6">BIRDIES</text><text x="328" y="276" font-family="Georgia,'Times New Roman',serif" font-size="15" font-weight="700" fill="#0A6B3C" text-anchor="end">2</text><line x1="32" y1="288" x2="328" y2="288" stroke="rgba(74,55,40,0.14)"/><text x="32" y="310" font-family="-apple-system,'Segoe UI',system-ui,sans-serif" font-size="11" font-weight="400" fill="rgba(43,33,24,0.55)" text-anchor="start" letter-spacing="1.6">PARS</text><text x="328" y="310" font-family="Georgia,'Times New Roman',serif" font-size="15" font-weight="700" fill="#2B2118" text-anchor="end">27</text><line x1="32" y1="322" x2="328" y2="322" stroke="rgba(74,55,40,0.14)"/><text x="32" y="344" font-family="-apple-system,'Segoe UI',system-ui,sans-serif" font-size="11" font-weight="400" fill="rgba(43,33,24,0.55)" text-anchor="start" letter-spacing="1.6">BOGEYS</text><text x="328" y="344" font-family="Georgia,'Times New Roman',serif" font-size="15" font-weight="700" fill="#2B2118" text-anchor="end">25</text><line x1="32" y1="356" x2="328" y2="356" stroke="rgba(74,55,40,0.14)"/><text x="32" y="378" font-family="-apple-system,'Segoe UI',system-ui,sans-serif" font-size="11" font-weight="400" fill="rgba(43,33,24,0.55)" text-anchor="start" letter-spacing="1.6">DOUBLES OR WORSE</text><text x="328" y="378" font-family="Georgia,'Times New Roman',serif" font-size="15" font-weight="700" fill="#2B2118" text-anchor="end">18</text><line x1="32" y1="390" x2="328" y2="390" stroke="rgba(74,55,40,0.14)"/><rect x="16" y="410" width="328" height="70" rx="12" fill="#FFFFFF" stroke="rgba(74,55,40,0.14)"/><text x="32" y="440" font-family="Georgia,'Times New Roman',serif" font-size="16" font-weight="700" fill="#2B2118" text-anchor="start">Strokes gained</text><rect x="216" y="424" width="60" height="28" rx="14" fill="rgba(10,157,86,0.12)" stroke="#0A6B3C"/><text x="246" y="442" font-family="Georgia,'Times New Roman',serif" font-size="12" font-weight="400" fill="#0A6B3C" text-anchor="middle">Gross</text><rect x="284" y="424" width="48" height="28" rx="14" fill="#FFFFFF" stroke="rgba(74,55,40,0.14)"/><text x="308" y="442" font-family="Georgia,'Times New Roman',serif" font-size="12" font-weight="400" fill="rgba(43,33,24,0.75)" text-anchor="middle">Net</text><rect y="533" width="360" height="52" fill="#FFFFFF"/><line x1="0" y1="533" x2="360" y2="533" stroke="rgba(74,55,40,0.14)"/><path d="M30 552 L36 546 L42 552 M32 551 V557 H40 V551" stroke="rgba(74,55,40,0.6)" stroke-width="1.6" fill="none" stroke-linecap="round" stroke-linejoin="round"/><text x="36" y="573" text-anchor="middle" font-family="-apple-system,'Segoe UI',system-ui,sans-serif" font-size="8.5" font-weight="400" fill="rgba(74,55,40,0.6)">Home</text><rect x="103" y="545" width="10" height="12" rx="2" stroke="rgba(74,55,40,0.6)" stroke-width="1.6" fill="none" stroke-linecap="round" stroke-linejoin="round"/><line x1="105.5" y1="549" x2="110.5" y2="549" stroke="rgba(74,55,40,0.6)" stroke-width="1.6" fill="none" stroke-linecap="round" stroke-linejoin="round"/><line x1="105.5" y1="552.5" x2="110.5" y2="552.5" stroke="rgba(74,55,40,0.6)" stroke-width="1.6" fill="none" stroke-linecap="round" stroke-linejoin="round"/><text x="108" y="573" text-anchor="middle" font-family="-apple-system,'Segoe UI',system-ui,sans-serif" font-size="8.5" font-weight="400" fill="rgba(74,55,40,0.6)">Scoring</text><path d="M175.5 545 H184.5 V549 A4.5 4.5 0 0 1 175.5 549 Z M180 553.5 V556 M176.5 557 H183.5" stroke="rgba(74,55,40,0.6)" stroke-width="1.6" fill="none" stroke-linecap="round" stroke-linejoin="round"/><text x="180" y="573" text-anchor="middle" font-family="-apple-system,'Segoe UI',system-ui,sans-serif" font-size="8.5" font-weight="400" fill="rgba(74,55,40,0.6)">Leaderboard</text><path d="M246.5 557 V550 M252 557 V545 M257.5 557 V548" stroke="#0A9D56" stroke-width="1.6" fill="none" stroke-linecap="round" stroke-linejoin="round"/><text x="252" y="573" text-anchor="middle" font-family="-apple-system,'Segoe UI',system-ui,sans-serif" font-size="8.5" font-weight="600" fill="#0A9D56">Stats</text><circle cx="324" cy="551" r="3" stroke="rgba(74,55,40,0.6)" stroke-width="1.6" fill="none" stroke-linecap="round" stroke-linejoin="round"/><circle cx="324" cy="551" r="6.2" stroke="rgba(74,55,40,0.6)" stroke-width="1.6" fill="none" stroke-linecap="round" stroke-linejoin="round" stroke-dasharray="2.4 2.1"/><text x="324" y="573" text-anchor="middle" font-family="-apple-system,'Segoe UI',system-ui,sans-serif" font-size="8.5" font-weight="400" fill="rgba(74,55,40,0.6)">Trip Setup</text></svg>